<svg width="200" height="200" viewBox="0 0 200 200" fill="none" xmlns="http://www.w3.org/2000/svg">
  <path
    d="M200 100C200 155.228 155.228 200 100 200C44.7715 200 0 155.228 0 100C0 44.7715 44.7715 0 100 0C155.228 0 200 44.7715 200 100Z"
    class="fill-black dark:fill-transparent"
  />
  <path
    d="M42.3686 129.504L61.5784 95.983C63.2149 93.1274 62.2121 89.5113 59.3387 87.9062C56.4653 86.3012 52.8094 87.3149 51.1729 90.1706L31.9631 123.691C30.3266 126.547 31.3294 130.163 34.2028 131.768C37.0762 133.373 40.7321 132.36 42.3686 129.504Z"
    fill="#C5F74F"
  />
  <path
    d="M84.3686 103.504L103.578 69.983C105.215 67.1274 104.212 63.5113 101.339 61.9062C98.4653 60.3012 94.8094 61.3149 93.1729 64.1706L73.9631 97.6914C72.3266 100.547 73.3294 104.163 76.2028 105.768C79.0762 107.373 82.7321 106.359 84.3686 103.504Z"
    fill="#C5F74F"
  />
  <path
    d="M148.369 103.504L167.578 69.983C169.215 67.1274 168.212 63.5113 165.339 61.9062C162.465 60.3012 158.809 61.3149 157.173 64.1706L137.963 97.6914C136.327 100.547 137.329 104.163 140.203 105.768C143.076 107.373 146.732 106.359 148.369 103.504Z"
    fill="#C5F74F"
  />
  <path
    d="M106.369 129.504L125.578 95.983C127.215 93.1274 126.212 89.5113 123.339 87.9062C120.465 86.3012 116.809 87.3149 115.173 90.1706L95.9631 123.691C94.3266 126.547 95.3294 130.163 98.2028 131.768C101.076 133.373 104.732 132.36 106.369 129.504Z"
    fill="#C5F74F"
  />
</svg>
